<?xml version="1.0" standalone="no"?>
<!DOCTYPE svg PUBLIC "-//W3C//DTD SVG 1.1//EN" "http://www.w3.org/Graphics/SVG/1.1/DTD/svg11.dtd">
<svg xmlns="http://www.w3.org/2000/svg" version="1.1" viewBox="0.00 0.00 1080.00 1080.00" width="1080" height="1080">
<g stroke-width="2.00" fill="none" stroke-linecap="butt">
<path stroke="#1978b6" vector-effect="non-scaling-stroke" d="   M 528.94 953.13   Q 528.67 939.68 529.00 926.50   Q 529.31 913.66 529.28 906.50   Q 528.84 824.62 529.00 742.75   C 529.05 718.61 528.35 690.71 528.35 674.50   Q 528.37 486.82 528.35 299.13   Q 528.35 292.51 528.93 279.16   C 529.71 261.23 528.16 243.45 529.25 225.50   C 529.46 222.03 528.91 218.14 528.93 215.16   Q 529.21 150.78 529.32 86.41   C 529.33 76.88 528.78 64.00 529.03 52.77   C 529.08 50.69 528.24 48.87 527.53 46.96"/>
<path stroke="#1772ad" vector-effect="non-scaling-stroke" d="   M 336.32 749.22   Q 336.70 747.72 335.08 744.69   Q 256.28 597.03 177.40 449.52   A 0.71 0.70 69.7 0 0 176.65 449.17   Q 176.44 449.21 176.27 449.51   Q 176.16 449.71 176.16 450.01   Q 176.15 613.79 176.15 777.32"/>
<path stroke="#1772ad" vector-effect="non-scaling-stroke" d="   M 177.72 222.96   L 177.54 224.11   A 1.55 1.52 -55.0 0 0 177.70 225.07   L 415.15 661.63   A 0.38 0.38 0.0 0 0 415.87 661.45   L 416.28 260.51"/>
<path stroke="#0c5e8e" vector-effect="non-scaling-stroke" d="   M 643.37 297.07   L 643.80 695.98"/>
<path stroke="#0c537f" vector-effect="non-scaling-stroke" d="   M 643.75 723.79   L 643.48 772.05   A 1.08 1.08 0.0 0 0 645.02 773.04   L 891.76 658.57   A 1.46 1.45 77.6 0 0 892.60 657.25   L 892.60 341.00   A 4.43 4.42 -77.8 0 0 890.01 336.97   L 645.24 225.40   A 1.26 1.25 12.2 0 0 643.46 226.54   L 643.53 274.97"/>
<path stroke="#004467" vector-effect="non-scaling-stroke" d="   M 750.89 677.38   L 809.42 651.86   A 0.45 0.45 0.0 0 0 809.59 651.17   C 807.49 648.52 807.60 646.04 807.54 642.01   Q 805.78 509.45 807.00 376.89   C 807.06 369.40 807.48 361.54 807.73 353.87   Q 807.76 352.95 808.50 350.23   C 809.55 346.39 806.39 345.73 803.06 344.26   Q 763.36 326.74 723.64 309.70"/>
</g>
<path fill="#176da6" d="   M 528.94 953.13   Q 528.67 939.68 529.00 926.50   Q 529.31 913.66 529.28 906.50   Q 528.84 824.62 529.00 742.75   C 529.05 718.61 528.35 690.71 528.35 674.50   Q 528.37 486.82 528.35 299.13   Q 528.35 292.51 528.93 279.16   C 529.71 261.23 528.16 243.45 529.25 225.50   C 529.46 222.03 528.91 218.14 528.93 215.16   Q 529.21 150.78 529.32 86.41   C 529.33 76.88 528.78 64.00 529.03 52.77   C 529.08 50.69 528.24 48.87 527.53 46.96   Q 530.79 45.67 533.45 47.01   Q 708.23 134.95 883.34 222.23   C 916.49 238.75 949.82 254.94 982.96 271.71   A 2.82 2.81 13.4 0 1 984.51 274.22   Q 984.50 499.00 984.46 724.25   C 984.46 727.46 982.89 727.94 980.44 729.14   Q 757.77 839.16 536.02 951.03   Q 532.98 952.57 528.94 953.13   Z   M 643.53 274.97   L 643.37 297.07   L 643.80 695.98   L 643.75 723.79   L 643.48 772.05   A 1.08 1.08 0.0 0 0 645.02 773.04   L 891.76 658.57   A 1.46 1.45 77.6 0 0 892.60 657.25   L 892.60 341.00   A 4.43 4.42 -77.8 0 0 890.01 336.97   L 645.24 225.40   A 1.26 1.25 12.2 0 0 643.46 226.54   L 643.53 274.97   Z"/>
<path fill="#1a82c5" d="   M 527.53 46.96   C 528.24 48.87 529.08 50.69 529.03 52.77   C 528.78 64.00 529.33 76.88 529.32 86.41   Q 529.21 150.78 528.93 215.16   C 528.91 218.14 529.46 222.03 529.25 225.50   C 528.16 243.45 529.71 261.23 528.93 279.16   Q 528.35 292.51 528.35 299.13   Q 528.37 486.82 528.35 674.50   C 528.35 690.71 529.05 718.61 529.00 742.75   Q 528.84 824.62 529.28 906.50   Q 529.31 913.66 529.00 926.50   Q 528.67 939.68 528.94 953.13   L 418.00 897.66   A 6.64 6.59 -0.5 0 1 415.11 894.84   Q 377.77 824.73 339.98 754.01   Q 338.17 750.63 336.32 749.22   Q 336.70 747.72 335.08 744.69   Q 256.28 597.03 177.40 449.52   A 0.71 0.70 69.7 0 0 176.65 449.17   Q 176.44 449.21 176.27 449.51   Q 176.16 449.71 176.16 450.01   Q 176.15 613.79 176.15 777.32   Q 174.72 777.36 174.35 776.63   Q 174.14 776.22 173.72 776.01   L 76.66 727.70   A 2.10 2.09 13.4 0 1 75.50 725.83   L 75.50 273.77   A 2.69 2.68 76.8 0 1 76.99 271.36   Q 126.30 246.89 174.99 222.50   Q 176.50 221.74 177.72 222.96   L 177.54 224.11   A 1.55 1.52 -55.0 0 0 177.70 225.07   L 415.15 661.63   A 0.38 0.38 0.0 0 0 415.87 661.45   L 416.28 260.51   L 416.26 103.45   A 1.50 1.49 76.9 0 1 417.09 102.11   L 527.53 46.96   Z"/>
<path fill="#136195" d="   M 177.72 222.96   L 416.28 260.51   L 415.87 661.45   A 0.38 0.38 0.0 0 1 415.15 661.63   L 177.70 225.07   A 1.55 1.52 -55.0 0 1 177.54 224.11   L 177.72 222.96   Z"/>
<path fill="#003958" d="   M 643.75 723.79   L 750.89 677.38   L 809.42 651.86   A 0.45 0.45 0.0 0 0 809.59 651.17   C 807.49 648.52 807.60 646.04 807.54 642.01   Q 805.78 509.45 807.00 376.89   C 807.06 369.40 807.48 361.54 807.73 353.87   Q 807.76 352.95 808.50 350.23   C 809.55 346.39 806.39 345.73 803.06 344.26   Q 763.36 326.74 723.64 309.70   L 643.53 274.97   L 643.46 226.54   A 1.26 1.25 12.2 0 1 645.24 225.40   L 890.01 336.97   A 4.43 4.42 -77.8 0 1 892.60 341.00   L 892.60 657.25   A 1.46 1.45 77.6 0 1 891.76 658.57   L 645.02 773.04   A 1.08 1.08 0.0 0 1 643.48 772.05   L 643.75 723.79   Z"/>
<path fill="#004f75" d="   M 643.37 297.07   L 723.64 309.70   Q 763.36 326.74 803.06 344.26   C 806.39 345.73 809.55 346.39 808.50 350.23   Q 807.76 352.95 807.73 353.87   C 807.48 361.54 807.06 369.40 807.00 376.89   Q 805.78 509.45 807.54 642.01   C 807.60 646.04 807.49 648.52 809.59 651.17   A 0.45 0.45 0.0 0 1 809.42 651.86   L 750.89 677.38   L 643.80 695.98   L 643.37 297.07   Z"/>
<path fill="#136195" d="   M 336.32 749.22   L 176.15 777.32   Q 176.15 613.79 176.16 450.01   Q 176.16 449.71 176.27 449.51   Q 176.44 449.21 176.65 449.17   A 0.71 0.70 69.7 0 1 177.40 449.52   Q 256.28 597.03 335.08 744.69   Q 336.70 747.72 336.32 749.22   Z"/>
</svg>